# xmcd
#
# Track frame offsets:
# 150
# 12775
# 26482
# 41667
# 55185
# 71007
# 86687
# 102767
# 119355
# 128715
# 145102
#
# Disc length: 2148 seconds
#
#
# Revision: 0
# Processed by: cddbd v1.5PL3 Copyright (c) Steve Scherf et al.
# Submitted via: FreeRIP 2.53 
#
DISCID=8d08620b
DTITLE=Austing Rangers - City Country Boy
DYEAR=1900
DGENRE=Country
TTITLE0=City Country Boy
TTITLE1=Picture Of My Baby
TTITLE2=Contry Doctor
TTITLE3=High Maintenance
TTITLE4=Hollywood Scene
TTITLE5=Can´t Wait
TTITLE6=Outta Control
TTITLE7=The Check´s In The Mail
TTITLE8=Memphis
TTITLE9=It´s So Clear To Me
TTITLE10=Doin It All Gain
EXTD=
EXTT0=
EXTT1=
EXTT2=
EXTT3=
EXTT4=
EXTT5=
EXTT6=
EXTT7=
EXTT8=
EXTT9=
EXTT10=
PLAYORDER=
